<svg width="22" height="22" viewBox="0 0 22 22" fill="none" xmlns="http://www.w3.org/2000/svg">
<g id="code">
<g id="vuesax/linear/code">
<g id="code_2">
<path id="Vector" d="M8.25104 11.917C7.64604 12.2195 7.14187 12.6687 6.76604 13.2278C6.5552 13.5487 6.5552 13.952 6.76604 14.2728C7.14187 14.832 7.64604 15.2812 8.25104 15.5837" stroke="#2563EB" stroke-width="1.54183" stroke-linecap="round" stroke-linejoin="round"/>
<path id="Vector_2" d="M13.9438 11.917C14.5488 12.2195 15.053 12.6687 15.4288 13.2278C15.6397 13.5487 15.6397 13.952 15.4288 14.2728C15.053 14.832 14.5488 15.2812 13.9438 15.5837" stroke="#2563EB" stroke-width="1.54183" stroke-linecap="round" stroke-linejoin="round"/>
<path id="Vector_3" d="M8.25114 20.1663H13.7511C18.3345 20.1663 20.1678 18.333 20.1678 13.7497V8.24967C20.1678 3.66634 18.3345 1.83301 13.7511 1.83301H8.25114C3.66781 1.83301 1.83447 3.66634 1.83447 8.24967V13.7497C1.83447 18.333 3.66781 20.1663 8.25114 20.1663Z" stroke="#2563EB" stroke-width="1.54183" stroke-linecap="round" stroke-linejoin="round"/>
<path id="Vector_4" d="M2.0459 7.34217L19.6642 7.33301" stroke="#2563EB" stroke-width="1.54183" stroke-linecap="round" stroke-linejoin="round"/>
</g>
</g>
</g>
</svg>
