<svg width="22" height="22" viewBox="0 0 22 22" fill="none" xmlns="http://www.w3.org/2000/svg">
<g id="money">
<g id="vuesax/linear/money">
<path id="Vector" d="M15.5835 18.7923H6.41683C3.66683 18.7923 1.8335 17.4173 1.8335 14.209V7.79232C1.8335 4.58398 3.66683 3.20898 6.41683 3.20898H15.5835C18.3335 3.20898 20.1668 4.58398 20.1668 7.79232V14.209C20.1668 17.4173 18.3335 18.7923 15.5835 18.7923Z" stroke="#64748B" stroke-width="1.54183" stroke-miterlimit="10" stroke-linecap="round" stroke-linejoin="round"/>
<path id="Vector_2" d="M11 13.75C12.5188 13.75 13.75 12.5188 13.75 11C13.75 9.48122 12.5188 8.25 11 8.25C9.48122 8.25 8.25 9.48122 8.25 11C8.25 12.5188 9.48122 13.75 11 13.75Z" stroke="#64748B" stroke-width="1.54183" stroke-miterlimit="10" stroke-linecap="round" stroke-linejoin="round"/>
<path id="Vector_3" d="M5.0415 8.70898V13.2923" stroke="#64748B" stroke-width="1.54183" stroke-miterlimit="10" stroke-linecap="round" stroke-linejoin="round"/>
<path id="Vector_4" d="M16.9585 8.70898V13.2923" stroke="#64748B" stroke-width="1.54183" stroke-miterlimit="10" stroke-linecap="round" stroke-linejoin="round"/>
</g>
</g>
</svg>
