<svg width="22" height="22" viewBox="0 0 22 22" fill="none" xmlns="http://www.w3.org/2000/svg">
<g id="history">
<g id="Group">
<path id="Vector" d="M11 7.33398V11.0007L12.8333 12.834" stroke="#64748B" stroke-width="1.5" stroke-linecap="round" stroke-linejoin="round"/>
<path id="Vector_2" d="M2.7959 10.0839C3.00132 8.06727 3.94197 6.19686 5.4384 4.82952C6.93483 3.46218 8.88229 2.69361 10.9092 2.67046C12.9361 2.64731 14.9006 3.37119 16.4279 4.704C17.9552 6.03681 18.9383 7.88524 19.1897 9.89664C19.4411 11.908 18.9433 13.9416 17.7911 15.6093C16.6389 17.2771 14.913 18.4623 12.9427 18.9387C10.9725 19.4152 8.89577 19.1497 7.10881 18.1928C5.32185 17.2359 2.7959 13.7506 2.7959 13.7506M2.7959 18.3339V13.7506M2.7959 13.7506H7.37923" stroke="#64748B" stroke-width="1.5" stroke-linecap="round" stroke-linejoin="round"/>
</g>
</g>
</svg>
