<svg width="22" height="22" viewBox="0 0 22 22" fill="none" xmlns="http://www.w3.org/2000/svg">
<g id="logout">
<g id="Group">
<path id="Vector" d="M12.8333 7.33268V5.49935C12.8333 5.01312 12.6402 4.5468 12.2964 4.20299C11.9525 3.85917 11.4862 3.66602 11 3.66602H4.58333C4.0971 3.66602 3.63079 3.85917 3.28697 4.20299C2.94315 4.5468 2.75 5.01312 2.75 5.49935V16.4993C2.75 16.9856 2.94315 17.4519 3.28697 17.7957C3.63079 18.1395 4.0971 18.3327 4.58333 18.3327H11C11.4862 18.3327 11.9525 18.1395 12.2964 17.7957C12.6402 17.4519 12.8333 16.9856 12.8333 16.4993V14.666" stroke="#64748B" stroke-width="1.5" stroke-linecap="round" stroke-linejoin="round"/>
<path id="Vector_2" d="M6.4165 11H19.2498M19.2498 11L16.4998 8.25M19.2498 11L16.4998 13.75" stroke="#64748B" stroke-width="1.5" stroke-linecap="round" stroke-linejoin="round"/>
</g>
</g>
</svg>
