<svg width="22" height="22" viewBox="0 0 22 22" fill="none" xmlns="http://www.w3.org/2000/svg">
<g id="code">
<g id="vuesax/linear/code">
<g id="code_2">
<path id="Vector" d="M8.25104 11.916C7.64604 12.2185 7.14187 12.6677 6.76604 13.2268C6.5552 13.5477 6.5552 13.951 6.76604 14.2718C7.14187 14.831 7.64604 15.2802 8.25104 15.5827" stroke="#64748B" stroke-width="1.54183" stroke-linecap="round" stroke-linejoin="round"/>
<path id="Vector_2" d="M13.9438 11.916C14.5488 12.2185 15.053 12.6677 15.4288 13.2268C15.6397 13.5477 15.6397 13.951 15.4288 14.2718C15.053 14.831 14.5488 15.2802 13.9438 15.5827" stroke="#64748B" stroke-width="1.54183" stroke-linecap="round" stroke-linejoin="round"/>
<path id="Vector_3" d="M8.25114 20.1673H13.7511C18.3345 20.1673 20.1678 18.334 20.1678 13.7507V8.25065C20.1678 3.66732 18.3345 1.83398 13.7511 1.83398H8.25114C3.66781 1.83398 1.83447 3.66732 1.83447 8.25065V13.7507C1.83447 18.334 3.66781 20.1673 8.25114 20.1673Z" stroke="#64748B" stroke-width="1.54183" stroke-linecap="round" stroke-linejoin="round"/>
<path id="Vector_4" d="M2.0459 7.34315L19.6642 7.33398" stroke="#64748B" stroke-width="1.54183" stroke-linecap="round" stroke-linejoin="round"/>
</g>
</g>
</g>
</svg>
