<svg width="22" height="22" viewBox="0 0 22 22" fill="none" xmlns="http://www.w3.org/2000/svg">
<g id="folder-open">
<g id="vuesax/linear/folder-open">
<g id="folder-open_2">
<path id="Vector" d="M19.864 13.109L19.4974 17.6923C19.3599 19.0948 19.2499 20.1673 16.7657 20.1673H5.23403C2.74987 20.1673 2.63987 19.0948 2.50237 17.6923L2.1357 13.109C2.06237 12.3482 2.3007 11.6423 2.73153 11.1015C2.7407 11.0923 2.7407 11.0923 2.74987 11.0832C3.25403 10.469 4.01487 10.084 4.86737 10.084H17.1324C17.9849 10.084 18.7365 10.469 19.2315 11.0648C19.2407 11.074 19.2499 11.0832 19.2499 11.0923C19.699 11.6332 19.9465 12.339 19.864 13.109Z" stroke="#64748B" stroke-width="1.54183" stroke-miterlimit="10"/>
<path id="Vector_2" d="M3.2085 10.478V5.75716C3.2085 2.64049 3.98766 1.86133 7.10433 1.86133H8.2685C9.43266 1.86133 9.6985 2.20966 10.1385 2.79633L11.3027 4.35466C11.596 4.73966 11.7702 4.97799 12.5493 4.97799H14.8868C18.0035 4.97799 18.7827 5.75716 18.7827 8.87383V10.5147" stroke="#64748B" stroke-width="1.54183" stroke-miterlimit="10" stroke-linecap="round" stroke-linejoin="round"/>
<path id="Vector_3" d="M8.64404 15.584H13.3557" stroke="#64748B" stroke-width="1.54183" stroke-miterlimit="10" stroke-linecap="round" stroke-linejoin="round"/>
</g>
</g>
</g>
</svg>
