<svg width="22" height="22" viewBox="0 0 22 22" fill="none" xmlns="http://www.w3.org/2000/svg">
<g id="home-hashtag">
<g id="vuesax/linear/home-hashtag">
<g id="home-hashtag_2">
<path id="Vector" d="M8.2685 2.60364L3.32766 6.45364C2.50266 7.09531 1.8335 8.46114 1.8335 9.49698V16.2895C1.8335 18.4161 3.566 20.1578 5.69266 20.1578H16.3077C18.4343 20.1578 20.1668 18.4161 20.1668 16.2986V9.62531C20.1668 8.51614 19.4243 7.09531 18.5168 6.46281L12.8518 2.49365C11.5685 1.59531 9.506 1.64115 8.2685 2.60364Z" stroke="#64748B" stroke-width="1.54183" stroke-linecap="round" stroke-linejoin="round"/>
<path id="Vector_2" d="M9.625 16.5H12.375C13.8875 16.5 15.125 15.2625 15.125 13.75V11C15.125 9.4875 13.8875 8.25 12.375 8.25H9.625C8.1125 8.25 6.875 9.4875 6.875 11V13.75C6.875 15.2625 8.1125 16.5 9.625 16.5Z" stroke="#64748B" stroke-width="1.54183" stroke-linecap="round" stroke-linejoin="round"/>
<path id="Vector_3" d="M11 8.25V16.5" stroke="#64748B" stroke-width="1.54183" stroke-linecap="round" stroke-linejoin="round"/>
<path id="Vector_4" d="M6.875 12.375H15.125" stroke="#64748B" stroke-width="1.54183" stroke-linecap="round" stroke-linejoin="round"/>
</g>
</g>
</g>
</svg>
