<svg width="22" height="22" viewBox="0 0 22 22" fill="none" xmlns="http://www.w3.org/2000/svg">
<g id="folder-open">
<g id="vuesax/linear/folder-open">
<g id="folder-open_2">
<path id="Vector" d="M19.864 13.1083L19.4974 17.6916C19.3599 19.0941 19.2499 20.1666 16.7657 20.1666H5.23403C2.74987 20.1666 2.63987 19.0941 2.50237 17.6916L2.1357 13.1083C2.06237 12.3474 2.3007 11.6416 2.73153 11.1008C2.7407 11.0916 2.7407 11.0916 2.74987 11.0824C3.25403 10.4683 4.01487 10.0833 4.86737 10.0833H17.1324C17.9849 10.0833 18.7365 10.4683 19.2315 11.0641C19.2407 11.0733 19.2499 11.0824 19.2499 11.0916C19.699 11.6324 19.9465 12.3383 19.864 13.1083Z" stroke="#2563EB" stroke-width="1.54183" stroke-miterlimit="10"/>
<path id="Vector_2" d="M3.2085 10.4775V5.75667C3.2085 2.64001 3.98766 1.86084 7.10433 1.86084H8.2685C9.43266 1.86084 9.6985 2.20917 10.1385 2.79584L11.3027 4.35417C11.596 4.73917 11.7702 4.97751 12.5493 4.97751H14.8868C18.0035 4.97751 18.7827 5.75667 18.7827 8.87334V10.5142" stroke="#2563EB" stroke-width="1.54183" stroke-miterlimit="10" stroke-linecap="round" stroke-linejoin="round"/>
<path id="Vector_3" d="M8.64404 15.5833H13.3557" stroke="#2563EB" stroke-width="1.54183" stroke-miterlimit="10" stroke-linecap="round" stroke-linejoin="round"/>
</g>
</g>
</g>
</svg>
