<svg width="32" height="32" viewBox="0 0 32 32" fill="none" xmlns="http://www.w3.org/2000/svg">
<g id="Emoji">
<path id="Vector" d="M4.32623 8.10323C5.16276 7.51854 6.42379 7.63067 7.17488 8.25096L6.31343 6.99881C5.62018 6.01008 5.86847 4.94036 6.85807 4.2462C7.84767 3.55472 10.6518 5.41381 10.6518 5.41381C9.95234 4.41529 10.0832 3.14979 11.0817 2.4494C12.0802 1.75169 13.4578 1.99286 14.1572 2.99316L23.4303 16.0932L22.2485 27.5512L12.3854 23.9541L3.78248 11.1985C3.07677 10.1937 3.32061 8.80807 4.32623 8.10323Z" fill="#EF9645"/>
<path id="Vector_2" d="M2.39841 15.3901C2.39841 15.3901 1.39102 13.9217 2.86029 12.9151C4.32778 11.9086 5.33428 13.3761 5.33428 13.3761L10.0073 20.1913C10.1684 19.9226 10.3446 19.6574 10.5412 19.3957L4.05546 9.93827C4.05546 9.93827 3.04895 8.47075 4.51733 7.46422C5.98482 6.45769 6.99133 7.92521 6.99133 7.92521L13.0918 16.822C13.3187 16.6369 13.551 16.4509 13.7904 16.2685L6.71812 5.95309C6.71812 5.95309 5.71161 4.48557 7.17999 3.47904C8.64748 2.47251 9.65399 3.94003 9.65399 3.94003L16.7262 14.2536C16.9861 14.0943 17.2433 13.9564 17.5014 13.8104L10.891 4.17053C10.891 4.17053 9.88448 2.70301 11.352 1.69648C12.8195 0.689948 13.826 2.15747 13.826 2.15747L20.8155 12.3509L21.878 13.9012C17.4747 16.9217 17.0555 22.604 19.5713 26.2732C20.0741 27.0074 20.8083 26.5046 20.8083 26.5046C17.7888 22.1003 18.7108 17.1513 23.115 14.1317L21.8166 7.63331C21.8166 7.63331 21.3316 5.92105 23.0429 5.43514C24.7552 4.95012 25.2411 6.66238 25.2411 6.66238L26.7406 11.1157C27.3351 12.8813 27.9678 14.6407 28.8052 16.3049C31.1698 21.0039 29.7574 26.8437 25.2989 29.9024C20.4355 33.2371 13.7868 31.9974 10.4514 27.1347L2.39841 15.3901Z" fill="#FFDC5D"/>
<g id="Group">
<path id="Vector_3" d="M10.6798 28.4785C7.1201 28.4785 3.52302 24.8814 3.52302 21.3216C3.52302 20.8294 3.1626 20.4316 2.67047 20.4316C2.17834 20.4316 1.74316 20.8294 1.74316 21.3216C1.74316 26.6613 5.34025 30.2584 10.6798 30.2584C11.1719 30.2584 11.5697 29.8232 11.5697 29.3311C11.5697 28.839 11.1719 28.4785 10.6798 28.4785Z" fill="#5DADEC"/>
<path id="Vector_4" d="M6.22949 30.2205C3.55971 30.2205 1.77985 28.4406 1.77985 25.7707C1.77985 25.2786 1.38206 24.8808 0.889927 24.8808C0.397797 24.8808 0 25.2786 0 25.7707C0 29.3305 2.66978 32.0004 6.22949 32.0004C6.72162 32.0004 7.11941 31.6025 7.11941 31.1104C7.11941 30.6183 6.72162 30.2205 6.22949 30.2205ZM21.3582 1.74219C20.867 1.74219 20.4683 2.14088 20.4683 2.63213C20.4683 3.12338 20.867 3.52208 21.3582 3.52208C24.918 3.52208 28.4777 6.7161 28.4777 10.6416C28.4777 11.1329 28.8763 11.5316 29.3676 11.5316C29.8588 11.5316 30.2575 11.1329 30.2575 10.6416C30.2575 5.73449 26.6978 1.74219 21.3582 1.74219Z" fill="#5DADEC"/>
<path id="Vector_5" d="M25.8079 0C25.3167 0 24.918 0.361318 24.918 0.852568C24.918 1.34382 25.3167 1.77989 25.8079 1.77989C28.4777 1.77989 30.2202 3.76002 30.2202 6.19224C30.2202 6.68349 30.6553 7.08219 31.1475 7.08219C31.6396 7.08219 32 6.68349 32 6.19224C32 2.77752 29.3676 0 25.8079 0Z" fill="#5DADEC"/>
</g>
</g>
</svg>
